<?xml version="1.0" encoding="utf-8"?>
<svg version="1.1" xmlns:xlink="http://www.w3.org/1999/xlink" width="30px" height="30px" xmlns="http://www.w3.org/2000/svg">
  <g transform="matrix(1 0 0 1 -227 -355 )">
    <path d="M 242 356  C 249.84 356  256 362.16  256 370  C 256 377.84  249.84 384  242 384  C 234.16 384  228 377.84  228 370  C 228 362.16  234.16 356  242 356  Z " fill-rule="nonzero" fill="#0079fe" stroke="none" />
    <path d="M 242 356  C 249.84 356  256 362.16  256 370  C 256 377.84  249.84 384  242 384  C 234.16 384  228 377.84  228 370  C 228 362.16  234.16 356  242 356  Z " stroke-width="2" stroke="#0079fe" fill="none" />
  </g>
</svg>