<?xml version="1.0" encoding="utf-8"?>
<svg version="1.1" xmlns:xlink="http://www.w3.org/1999/xlink" width="30px" height="30px" xmlns="http://www.w3.org/2000/svg">
  <g transform="matrix(1 0 0 1 -317 820 )">
    <path d="M 332 -819  C 339.84 -819  346 -812.84  346 -805  C 346 -797.16  339.84 -791  332 -791  C 324.16 -791  318 -797.16  318 -805  C 318 -812.84  324.16 -819  332 -819  Z " fill-rule="nonzero" fill="#ffffff" stroke="none" />
    <path d="M 332 -819  C 339.84 -819  346 -812.84  346 -805  C 346 -797.16  339.84 -791  332 -791  C 324.16 -791  318 -797.16  318 -805  C 318 -812.84  324.16 -819  332 -819  Z " stroke-width="2" stroke="#e4e4e4" fill="none" />
  </g>
</svg>