<?xml version="1.0" encoding="utf-8"?>
<svg version="1.1" xmlns:xlink="http://www.w3.org/1999/xlink" width="30px" height="30px" xmlns="http://www.w3.org/2000/svg">
  <g transform="matrix(1 0 0 1 -774 805 )">
    <path d="M 789 -804  C 796.84 -804  803 -797.84  803 -790  C 803 -782.16  796.84 -776  789 -776  C 781.16 -776  775 -782.16  775 -790  C 775 -797.84  781.16 -804  789 -804  Z " fill-rule="nonzero" fill="#ffffff" stroke="none" />
    <path d="M 789 -804  C 796.84 -804  803 -797.84  803 -790  C 803 -782.16  796.84 -776  789 -776  C 781.16 -776  775 -782.16  775 -790  C 775 -797.84  781.16 -804  789 -804  Z " stroke-width="2" stroke="#0079fe" fill="none" />
  </g>
</svg>