<?xml version="1.0" encoding="utf-8"?>
<svg version="1.1" xmlns:xlink="http://www.w3.org/1999/xlink" width="30px" height="30px" xmlns="http://www.w3.org/2000/svg">
  <g transform="matrix(1 0 0 1 -358 -355 )">
    <path d="M 373 356  C 380.84 356  387 362.16  387 370  C 387 377.84  380.84 384  373 384  C 365.16 384  359 377.84  359 370  C 359 362.16  365.16 356  373 356  Z " fill-rule="nonzero" fill="#ffffff" stroke="none" />
    <path d="M 373 356  C 380.84 356  387 362.16  387 370  C 387 377.84  380.84 384  373 384  C 365.16 384  359 377.84  359 370  C 359 362.16  365.16 356  373 356  Z " stroke-width="2" stroke="#e4e4e4" fill="none" />
  </g>
</svg>