<?xml version="1.0" encoding="utf-8"?>
<svg version="1.1" xmlns:xlink="http://www.w3.org/1999/xlink" width="30px" height="30px" xmlns="http://www.w3.org/2000/svg">
  <g transform="matrix(1 0 0 1 -464 252 )">
    <path d="M 479 -251  C 486.84 -251  493 -244.84  493 -237  C 493 -229.16  486.84 -223  479 -223  C 471.16 -223  465 -229.16  465 -237  C 465 -244.84  471.16 -251  479 -251  Z " fill-rule="nonzero" fill="#ffffff" stroke="none" />
    <path d="M 479 -251  C 486.84 -251  493 -244.84  493 -237  C 493 -229.16  486.84 -223  479 -223  C 471.16 -223  465 -229.16  465 -237  C 465 -244.84  471.16 -251  479 -251  Z " stroke-width="2" stroke="#0079fe" fill="none" />
  </g>
</svg>