<?xml version="1.0" encoding="utf-8"?>
<svg version="1.1" xmlns:xlink="http://www.w3.org/1999/xlink" width="80px" height="35px" xmlns="http://www.w3.org/2000/svg">
  <g transform="matrix(1 0 0 1 -641 -135 )">
    <path d="M 641.5 140  A 4.5 4.5 0 0 1 646 135.5 L 716 135.5  A 4.5 4.5 0 0 1 720.5 140 L 720.5 165  A 4.5 4.5 0 0 1 716 169.5 L 646 169.5  A 4.5 4.5 0 0 1 641.5 165 L 641.5 140  Z " fill-rule="nonzero" fill="#f0f7ff" stroke="none" />
    <path d="M 641.5 140  A 4.5 4.5 0 0 1 646 135.5 L 716 135.5  A 4.5 4.5 0 0 1 720.5 140 L 720.5 165  A 4.5 4.5 0 0 1 716 169.5 L 646 169.5  A 4.5 4.5 0 0 1 641.5 165 L 641.5 140  Z " stroke-width="1" stroke="#409eff" fill="none" />
  </g>
</svg>