<?xml version="1.0" encoding="utf-8"?>
<svg version="1.1" xmlns:xlink="http://www.w3.org/1999/xlink" width="20px" height="13px" xmlns="http://www.w3.org/2000/svg">
  <g transform="matrix(1 0 0 1 -325 -204 )">
    <path d="M 14.8493303571429 10.1844618055556  C 16.3411458333333 9.27039930555556  17.5818452380952 8.04224537037037  18.5714285714286 6.5  C 17.4404761904762 4.72453703703704  16.0230654761905 3.39670138888889  14.3191964285714 2.51649305555555  C 14.7730654761905 3.29890046296296  15 4.14525462962963  15 5.05555555555556  C 15 6.44733796296296  14.5107886904762 7.63787615740741  13.5323660714286 8.62717013888889  C 12.553943452381 9.61646412037037  11.3764880952381 10.1111111111111  10 10.1111111111111  C 8.62351190476191 10.1111111111111  7.44605654761905 9.61646412037037  6.46763392857143 8.62717013888889  C 5.48921130952381 7.63787615740741  5 6.44733796296296  5 5.05555555555556  C 5 4.14525462962963  5.22693452380952 3.29890046296296  5.68080357142857 2.51649305555555  C 3.97693452380952 3.39670138888889  2.55952380952381 4.72453703703704  1.42857142857143 6.5  C 2.41815476190476 8.04224537037037  3.65885416666667 9.27039930555556  5.15066964285714 10.1844618055556  C 6.64248511904762 11.0985243055556  8.25892857142857 11.5555555555556  10 11.5555555555556  C 11.7410714285714 11.5555555555556  13.3575148809524 11.0985243055556  14.8493303571429 10.1844618055556  Z M 10.3794642857143 2.55034722222222  C 10.483630952381 2.44502314814815  10.5357142857143 2.31712962962963  10.5357142857143 2.16666666666667  C 10.5357142857143 2.0162037037037  10.483630952381 1.88831018518518  10.3794642857143 1.78298611111111  C 10.2752976190476 1.67766203703704  10.1488095238095 1.625  10 1.625  C 9.06994047619048 1.625  8.27194940476191 1.96166087962963  7.60602678571429 2.63498263888889  C 6.94010416666667 3.30830439814815  6.60714285714286 4.11516203703704  6.60714285714286 5.05555555555556  C 6.60714285714286 5.20601851851852  6.65922619047619 5.33391203703704  6.76339285714286 5.43923611111111  C 6.86755952380952 5.54456018518518  6.99404761904762 5.59722222222222  7.14285714285714 5.59722222222222  C 7.29166666666667 5.59722222222222  7.41815476190476 5.54456018518518  7.52232142857143 5.43923611111111  C 7.62648809523809 5.33391203703704  7.67857142857143 5.20601851851852  7.67857142857143 5.05555555555556  C 7.67857142857143 4.40856481481481  7.90550595238095 3.85561342592593  8.359375 3.39670138888889  C 8.81324404761905 2.93778935185185  9.36011904761905 2.70833333333333  10 2.70833333333333  C 10.1488095238095 2.70833333333333  10.2752976190476 2.6556712962963  10.3794642857143 2.55034722222222  Z M 19.7767857142857 5.72135416666667  C 19.9255952380952 5.98466435185185  20 6.24421296296296  20 6.5  C 20 6.75578703703704  19.9255952380952 7.01533564814815  19.7767857142857 7.27864583333333  C 18.7351190476191 9.00896990740741  17.3344494047619 10.3951099537037  15.5747767857143 11.4370659722222  C 13.8151041666667 12.4790219907407  11.9568452380952 13  10 13  C 8.04315476190476 13  6.18489583333333 12.4771412037037  4.42522321428571 11.4314236111111  C 2.6655505952381 10.3857060185185  1.26488095238095 9.00144675925926  0.223214285714286 7.27864583333333  C 0.0744047619047619 7.01533564814815  0 6.75578703703704  0 6.5  C 0 6.24421296296296  0.0744047619047619 5.98466435185185  0.223214285714286 5.72135416666667  C 1.26488095238095 3.99855324074074  2.6655505952381 2.61429398148148  4.42522321428571 1.56857638888889  C 6.18489583333333 0.522858796296295  8.04315476190476 0  10 0  C 11.9568452380952 0  13.8151041666667 0.522858796296295  15.5747767857143 1.56857638888889  C 17.3344494047619 2.61429398148148  18.7351190476191 3.99855324074074  19.7767857142857 5.72135416666667  Z " fill-rule="nonzero" fill="#d7d7d7" stroke="none" transform="matrix(1 0 0 1 325 204 )" />
  </g>
</svg>